<mxfile host="65bd71144e">
    <diagram id="qK_jFM_ymN7ORWsH51-E" name="Steps">
        <mxGraphModel dx="532" dy="313" grid="1" gridSize="10" guides="1" tooltips="1" connect="1" arrows="1" fold="1" page="1" pageScale="1" pageWidth="850" pageHeight="1100" math="0" shadow="0">
            <root>
                <mxCell id="0"/>
                <mxCell id="1" parent="0"/>
                <mxCell id="12" style="edgeStyle=none;html=1;exitX=0;exitY=1;exitDx=0;exitDy=0;entryX=1;entryY=0;entryDx=0;entryDy=0;fontSize=21;fillColor=#1ba1e2;strokeColor=#006EAF;strokeWidth=3;" parent="1" edge="1">
                    <mxGeometry relative="1" as="geometry">
                        <mxPoint x="280" y="70" as="sourcePoint"/>
                    </mxGeometry>
                </mxCell>
                <mxCell id="13" style="edgeStyle=none;html=1;exitX=1;exitY=1;exitDx=0;exitDy=0;entryX=0;entryY=0;entryDx=0;entryDy=0;strokeWidth=3;fontSize=21;fillColor=#1ba1e2;strokeColor=#006EAF;" parent="1" edge="1">
                    <mxGeometry relative="1" as="geometry">
                        <mxPoint x="400" y="70" as="sourcePoint"/>
                    </mxGeometry>
                </mxCell>
                <mxCell id="25" value="" style="edgeStyle=none;html=1;strokeWidth=3;fontSize=17;fontColor=#FFFFFF;" parent="1" edge="1">
                    <mxGeometry relative="1" as="geometry">
                        <mxPoint x="560" y="160" as="sourcePoint"/>
                    </mxGeometry>
                </mxCell>
                <mxCell id="32" value="" style="edgeStyle=none;html=1;strokeWidth=3;fontSize=17;fontColor=#FFFFFF;" parent="1" source="26" target="29" edge="1">
                    <mxGeometry relative="1" as="geometry"/>
                </mxCell>
                <mxCell id="26" value="&lt;span style=&quot;font-size: 21px;&quot;&gt;&lt;b&gt;تحديد البيانات&lt;/b&gt;&lt;/span&gt;" style="rounded=0;whiteSpace=wrap;html=1;fillColor=#000000;fontColor=#ffffff;strokeColor=#006EAF;" parent="1" vertex="1">
                    <mxGeometry x="350" y="150" width="120" height="60" as="geometry"/>
                </mxCell>
                <mxCell id="35" value="" style="edgeStyle=none;html=1;strokeWidth=3;fontSize=17;fontColor=#FFFFFF;" parent="1" source="30" target="34" edge="1">
                    <mxGeometry relative="1" as="geometry"/>
                </mxCell>
                <mxCell id="30" value="&lt;span style=&quot;font-size: 21px;&quot;&gt;&lt;b&gt;عمل التنسيقات&lt;/b&gt;&lt;/span&gt;" style="rounded=0;whiteSpace=wrap;html=1;fillColor=#000000;fontColor=#ffffff;strokeColor=#006EAF;" parent="1" vertex="1">
                    <mxGeometry x="350" y="360" width="120" height="60" as="geometry"/>
                </mxCell>
                <mxCell id="33" value="" style="edgeStyle=none;html=1;strokeWidth=3;fontSize=17;fontColor=#FFFFFF;" parent="1" source="29" target="30" edge="1">
                    <mxGeometry relative="1" as="geometry"/>
                </mxCell>
                <mxCell id="29" value="&lt;span style=&quot;font-size: 21px;&quot;&gt;&lt;b&gt;تحديد ال&lt;br&gt;widget&lt;br&gt;&lt;/b&gt;&lt;/span&gt;" style="rounded=0;whiteSpace=wrap;html=1;fillColor=#000000;fontColor=#ffffff;strokeColor=#006EAF;" parent="1" vertex="1">
                    <mxGeometry x="350" y="260" width="120" height="60" as="geometry"/>
                </mxCell>
                <mxCell id="34" value="&lt;span style=&quot;font-size: 21px;&quot;&gt;&lt;b&gt;إضافة التفاعل&lt;/b&gt;&lt;/span&gt;" style="rounded=0;whiteSpace=wrap;html=1;fillColor=#000000;fontColor=#ffffff;strokeColor=#006EAF;" parent="1" vertex="1">
                    <mxGeometry x="350" y="460" width="120" height="60" as="geometry"/>
                </mxCell>
                <mxCell id="VyqRaYq4d4mOAAX9FyVA-37" value="" style="edgeStyle=none;html=1;strokeWidth=3;fontSize=12;fontColor=#FFFFFF;" parent="1" source="VyqRaYq4d4mOAAX9FyVA-35" target="26" edge="1">
                    <mxGeometry relative="1" as="geometry"/>
                </mxCell>
                <mxCell id="VyqRaYq4d4mOAAX9FyVA-35" value="&lt;span style=&quot;font-size: 21px;&quot;&gt;&lt;b&gt;عمل مخطط لتفاعلات الصفحة&lt;/b&gt;&lt;/span&gt;" style="rounded=0;whiteSpace=wrap;html=1;fillColor=#000000;fontColor=#ffffff;strokeColor=#006EAF;" parent="1" vertex="1">
                    <mxGeometry x="350" y="50" width="120" height="60" as="geometry"/>
                </mxCell>
            </root>
        </mxGraphModel>
    </diagram>
    <diagram id="cIxmiLZYCd7Y2fsKvO_g" name="Activity">
        <mxGraphModel dx="532" dy="313" grid="1" gridSize="10" guides="1" tooltips="1" connect="1" arrows="1" fold="1" page="1" pageScale="1" pageWidth="850" pageHeight="1100" math="0" shadow="0">
            <root>
                <mxCell id="0"/>
                <mxCell id="1" parent="0"/>
                <mxCell id="7fxnpiQBa2AT0RT9cRDz-3" value="" style="edgeStyle=none;html=1;strokeWidth=3;fontSize=17;fontColor=#FFFFFF;" parent="1" source="7fxnpiQBa2AT0RT9cRDz-1" target="7fxnpiQBa2AT0RT9cRDz-2" edge="1">
                    <mxGeometry relative="1" as="geometry"/>
                </mxCell>
                <mxCell id="7fxnpiQBa2AT0RT9cRDz-1" value="&lt;b style=&quot;&quot;&gt;&lt;span style=&quot;font-size: 21px;&quot;&gt;Start Splash&lt;/span&gt;&lt;br&gt;&lt;font style=&quot;font-size: 9px;&quot;&gt;(stateful)&lt;/font&gt;&lt;br&gt;&lt;/b&gt;" style="rounded=0;whiteSpace=wrap;html=1;fillColor=#1ba1e2;fontColor=#ffffff;strokeColor=#006EAF;" parent="1" vertex="1">
                    <mxGeometry x="280" y="120" width="120" height="80" as="geometry"/>
                </mxCell>
                <mxCell id="7fxnpiQBa2AT0RT9cRDz-5" value="" style="edgeStyle=none;html=1;strokeWidth=3;fontSize=17;fontColor=#FFFFFF;" parent="1" source="7fxnpiQBa2AT0RT9cRDz-2" target="7fxnpiQBa2AT0RT9cRDz-4" edge="1">
                    <mxGeometry relative="1" as="geometry"/>
                </mxCell>
                <mxCell id="7fxnpiQBa2AT0RT9cRDz-2" value="&lt;span style=&quot;font-size: 21px;&quot;&gt;&lt;b&gt;Wait 3 sec&lt;/b&gt;&lt;/span&gt;" style="rounded=0;whiteSpace=wrap;html=1;fillColor=#1ba1e2;fontColor=#ffffff;strokeColor=#006EAF;" parent="1" vertex="1">
                    <mxGeometry x="280" y="280" width="120" height="60" as="geometry"/>
                </mxCell>
                <mxCell id="7fxnpiQBa2AT0RT9cRDz-4" value="&lt;span style=&quot;font-size: 21px;&quot;&gt;&lt;b&gt;go to onboard&lt;/b&gt;&lt;/span&gt;" style="rounded=0;whiteSpace=wrap;html=1;fillColor=#1ba1e2;fontColor=#ffffff;strokeColor=#006EAF;" parent="1" vertex="1">
                    <mxGeometry x="280" y="370" width="120" height="60" as="geometry"/>
                </mxCell>
                <mxCell id="UquSpUlKj3ecinL8vLz3-1" value="&lt;font size=&quot;1&quot; style=&quot;&quot;&gt;&lt;b style=&quot;font-size: 12px;&quot;&gt;initState&lt;/b&gt;&lt;/font&gt;" style="rounded=0;whiteSpace=wrap;html=1;fillColor=#d80073;fontColor=#ffffff;strokeColor=#A50040;" parent="1" vertex="1">
                    <mxGeometry x="307.5" y="220" width="65" height="20" as="geometry"/>
                </mxCell>
                <mxCell id="UquSpUlKj3ecinL8vLz3-2" value="&lt;span style=&quot;font-size: 21px;&quot;&gt;&lt;b&gt;Activity&lt;/b&gt;&lt;/span&gt;" style="rounded=0;whiteSpace=wrap;html=1;fillColor=#a20025;fontColor=#ffffff;strokeColor=#6F0000;" parent="1" vertex="1">
                    <mxGeometry x="280" y="20" width="120" height="60" as="geometry"/>
                </mxCell>
            </root>
        </mxGraphModel>
    </diagram>
    <diagram id="naI2XkvmhjH8fI8hLFKP" name="Widget">
        <mxGraphModel dx="362" dy="313" grid="1" gridSize="10" guides="1" tooltips="1" connect="1" arrows="1" fold="1" page="1" pageScale="1" pageWidth="850" pageHeight="1100" math="0" shadow="0">
            <root>
                <mxCell id="0"/>
                <mxCell id="1" parent="0"/>
                <mxCell id="r6C4l_pePu1ma9Uied-O-2" value="" style="edgeStyle=none;html=1;strokeWidth=3;fontSize=12;fontColor=#FFFFFF;" parent="1" source="wUHJ-o_006GGSdk_TZj6-1" target="r6C4l_pePu1ma9Uied-O-1" edge="1">
                    <mxGeometry relative="1" as="geometry"/>
                </mxCell>
                <mxCell id="wUHJ-o_006GGSdk_TZj6-1" value="&lt;span style=&quot;font-size: 21px;&quot;&gt;&lt;b&gt;Splash&lt;/b&gt;&lt;/span&gt;" style="rounded=0;whiteSpace=wrap;html=1;fillColor=#1ba1e2;fontColor=#ffffff;strokeColor=#006EAF;" parent="1" vertex="1">
                    <mxGeometry x="280" y="10" width="120" height="60" as="geometry"/>
                </mxCell>
                <mxCell id="r6C4l_pePu1ma9Uied-O-5" value="" style="edgeStyle=none;html=1;strokeWidth=3;fontSize=12;fontColor=#FFFFFF;" parent="1" source="wUHJ-o_006GGSdk_TZj6-4" target="r6C4l_pePu1ma9Uied-O-4" edge="1">
                    <mxGeometry relative="1" as="geometry"/>
                </mxCell>
                <mxCell id="wUHJ-o_006GGSdk_TZj6-4" value="&lt;font color=&quot;#121111&quot; size=&quot;1&quot; style=&quot;&quot;&gt;&lt;b style=&quot;font-size: 17px;&quot;&gt;Center&lt;/b&gt;&lt;/font&gt;" style="rounded=0;whiteSpace=wrap;html=1;fillColor=#00FF80;fontColor=#ffffff;strokeColor=#2D7600;" parent="1" vertex="1">
                    <mxGeometry x="280" y="180" width="120" height="60" as="geometry"/>
                </mxCell>
                <mxCell id="wUHJ-o_006GGSdk_TZj6-5" value="&lt;font size=&quot;1&quot; style=&quot;&quot;&gt;&lt;b style=&quot;font-size: 17px;&quot;&gt;Icon&lt;/b&gt;&lt;/font&gt;" style="rounded=0;whiteSpace=wrap;html=1;fillColor=#d80073;fontColor=#ffffff;strokeColor=#A50040;" parent="1" vertex="1">
                    <mxGeometry x="130" y="450" width="120" height="60" as="geometry"/>
                </mxCell>
                <mxCell id="r6C4l_pePu1ma9Uied-O-3" value="" style="edgeStyle=none;html=1;strokeWidth=3;fontSize=12;fontColor=#FFFFFF;" parent="1" source="r6C4l_pePu1ma9Uied-O-1" target="wUHJ-o_006GGSdk_TZj6-4" edge="1">
                    <mxGeometry relative="1" as="geometry"/>
                </mxCell>
                <mxCell id="r6C4l_pePu1ma9Uied-O-1" value="&lt;span style=&quot;font-size: 21px;&quot;&gt;&lt;b&gt;Scaffold&lt;/b&gt;&lt;/span&gt;" style="rounded=0;whiteSpace=wrap;html=1;fillColor=#1ba1e2;fontColor=#ffffff;strokeColor=#006EAF;" parent="1" vertex="1">
                    <mxGeometry x="280" y="90" width="120" height="60" as="geometry"/>
                </mxCell>
                <mxCell id="r6C4l_pePu1ma9Uied-O-8" value="" style="edgeStyle=none;html=1;strokeWidth=3;fontSize=12;fontColor=#FFFFFF;" parent="1" source="r6C4l_pePu1ma9Uied-O-4" target="r6C4l_pePu1ma9Uied-O-7" edge="1">
                    <mxGeometry relative="1" as="geometry"/>
                </mxCell>
                <mxCell id="TtTwVAT8k54VWkurjs42-2" style="edgeStyle=none;html=1;exitX=0;exitY=1;exitDx=0;exitDy=0;entryX=1;entryY=0;entryDx=0;entryDy=0;strokeWidth=3;fontSize=9;fontColor=#FFFFFF;" parent="1" source="r6C4l_pePu1ma9Uied-O-4" target="TtTwVAT8k54VWkurjs42-1" edge="1">
                    <mxGeometry relative="1" as="geometry"/>
                </mxCell>
                <mxCell id="r6C4l_pePu1ma9Uied-O-4" value="&lt;font color=&quot;#121111&quot; size=&quot;1&quot; style=&quot;&quot;&gt;&lt;b style=&quot;font-size: 17px;&quot;&gt;Column&lt;/b&gt;&lt;/font&gt;" style="rounded=0;whiteSpace=wrap;html=1;fillColor=#00FF80;fontColor=#ffffff;strokeColor=#2D7600;" parent="1" vertex="1">
                    <mxGeometry x="280" y="270" width="120" height="60" as="geometry"/>
                </mxCell>
                <mxCell id="r6C4l_pePu1ma9Uied-O-7" value="&lt;font size=&quot;1&quot; style=&quot;&quot;&gt;&lt;b style=&quot;font-size: 17px;&quot;&gt;Text&lt;/b&gt;&lt;/font&gt;" style="rounded=0;whiteSpace=wrap;html=1;fillColor=#d80073;fontColor=#ffffff;strokeColor=#A50040;" parent="1" vertex="1">
                    <mxGeometry x="425" y="360" width="120" height="60" as="geometry"/>
                </mxCell>
                <mxCell id="TtTwVAT8k54VWkurjs42-3" value="" style="edgeStyle=none;html=1;strokeWidth=3;fontSize=9;fontColor=#FFFFFF;" parent="1" source="TtTwVAT8k54VWkurjs42-1" target="wUHJ-o_006GGSdk_TZj6-5" edge="1">
                    <mxGeometry relative="1" as="geometry"/>
                </mxCell>
                <mxCell id="TtTwVAT8k54VWkurjs42-1" value="&lt;font color=&quot;#121111&quot; size=&quot;1&quot; style=&quot;&quot;&gt;&lt;b style=&quot;font-size: 17px;&quot;&gt;Container&lt;/b&gt;&lt;/font&gt;" style="rounded=0;whiteSpace=wrap;html=1;fillColor=#00FF80;fontColor=#ffffff;strokeColor=#2D7600;" parent="1" vertex="1">
                    <mxGeometry x="130" y="360" width="120" height="60" as="geometry"/>
                </mxCell>
            </root>
        </mxGraphModel>
    </diagram>
</mxfile>